<?xml version="1.0" encoding="utf-8"?>
<!-- Generator: Adobe Illustrator 21.0.0, SVG Export Plug-In . SVG Version: 6.00 Build 0)  -->
<svg version="1.1" id="icon_x5F_Auton" xmlns="http://www.w3.org/2000/svg" xmlns:xlink="http://www.w3.org/1999/xlink" x="0px"
	 y="0px" viewBox="0 0 200 200" style="enable-background:new 0 0 200 200;" xml:space="preserve">
<style type="text/css">
	.st0{fill:none;}
	.st1{fill:url(#SVGID_1_);}
	.st2{fill:url(#SVGID_2_);}
	.st3{fill:url(#SVGID_3_);}
	.st4{fill:url(#SVGID_4_);}
	.st5{fill:url(#SVGID_5_);}
	.st6{fill:url(#SVGID_6_);}
	.st7{fill:url(#SVGID_7_);}
	.st8{fill:url(#SVGID_8_);}
	.st9{fill:url(#SVGID_9_);}
</style>
<rect x="0" y="0.7" class="st0" width="200" height="200"/>
<g>
	<g>
		<linearGradient id="SVGID_1_" gradientUnits="userSpaceOnUse" x1="80.1117" y1="100.7161" x2="129.807" y2="100.7161">
			<stop  offset="0" style="stop-color:#EFEFEF"/>
			<stop  offset="1" style="stop-color:#A3A3AD"/>
		</linearGradient>
		<path class="st1" d="M147.8,96.4c0,0-0.1-0.1-0.1-0.1c-0.1-0.1-0.1-0.1-0.2-0.2c-4.4-4.4-8.7-8.7-13.1-13.1
			c-5.5-5.5-14.1,3.1-8.6,8.6c1,1,2,2,3,3c-5.9,0-11.7,0-17.6,0c0-16.7,0-33.5,0-50.2c0-3.9,0-7.9,0-11.8c4.6,0,9.3,0,13.9,0
			c-1,1-2,2-3,3c-5.5,5.5,3.1,14.1,8.6,8.6c4.4-4.4,8.7-8.7,13.1-13.1c0,0,0.1-0.1,0.1-0.1c0.1-0.1,0.1-0.1,0.2-0.2
			c1.3-1.3,1.8-2.8,1.8-4.3c0.1-1.5-0.4-3-1.8-4.3c0,0-0.1-0.1-0.1-0.1c-0.1-0.1-0.1-0.1-0.2-0.2c-4.4-4.4-8.7-8.7-13.1-13.1
			c-5.5-5.5-14.1,3.1-8.6,8.6c1,1,2,2,3,3c-5.9,0-11.8,0-17.7,0c-2.3-0.8-5.2-0.3-6.9,1.5c-1.8,1.7-2.3,4.6-1.5,6.9
			c0,21.9,0,43.9,0,65.8c-10.9,0-21.9,0-32.8,0c-7.8,0-7.8,12.2,0,12.2c10.9,0,21.9,0,32.8,0c0,16.5,0,33.1,0,49.6
			c0,5.4,0,10.8,0,16.2c-1.3,3.6,0.5,8.4,5.5,8.4c6.9,0,13.7,0,20.6,0c-1,1-2,2-3,3c-5.5,5.5,3.1,14.1,8.6,8.6
			c4.4-4.4,8.7-8.7,13.1-13.1c0,0,0.1-0.1,0.1-0.1c0.1-0.1,0.1-0.1,0.2-0.2c1.3-1.3,1.8-2.8,1.8-4.3c0.1-1.5-0.4-3-1.8-4.3
			c0,0-0.1-0.1-0.1-0.1c-0.1-0.1-0.1-0.1-0.2-0.2c-4.4-4.4-8.7-8.7-13.1-13.1c-5.5-5.5-14.1,3.1-8.6,8.6c1,1,2,2,3,3
			c-4.6,0-9.3,0-13.9,0c0-20.7,0-41.4,0-62c5.9,0,11.7,0,17.6,0c-1,1-2,2-3,3c-5.5,5.5,3.1,14.1,8.6,8.6c4.4-4.4,8.7-8.7,13.1-13.1
			c0,0,0.1-0.1,0.1-0.1c0.1-0.1,0.1-0.1,0.2-0.2c1.3-1.3,1.8-2.8,1.8-4.3C149.6,99.3,149.1,97.8,147.8,96.4z"/>
		<g>
			<linearGradient id="SVGID_2_" gradientUnits="userSpaceOnUse" x1="165.0645" y1="17.3947" x2="184.5264" y2="17.3947">
				<stop  offset="0" style="stop-color:#E13859"/>
				<stop  offset="0.5087" style="stop-color:#C32B7F"/>
				<stop  offset="1" style="stop-color:#92318B"/>
			</linearGradient>
			<circle class="st2" cx="174.8" cy="17.4" r="9.7"/>
			<linearGradient id="SVGID_3_" gradientUnits="userSpaceOnUse" x1="160.7604" y1="43.5465" x2="188.8304" y2="43.5465">
				<stop  offset="0" style="stop-color:#E13859"/>
				<stop  offset="0.5087" style="stop-color:#C32B7F"/>
				<stop  offset="1" style="stop-color:#92318B"/>
			</linearGradient>
			<path class="st3" d="M174.8,29.6c-8.4,0-15.2,5.9-15.2,13.2c0,4.4,0,8.8,0,13.2c0,0.8,0.8,1.5,1.8,1.5c9,0,17.9,0,26.9,0
				c0.9,0,1.8-0.7,1.8-1.5c0-4.4,0-8.8,0-13.2C190,35.5,183.2,29.6,174.8,29.6z"/>
		</g>
		<g>
			<linearGradient id="SVGID_4_" gradientUnits="userSpaceOnUse" x1="165.0645" y1="83.0784" x2="184.5264" y2="83.0784">
				<stop  offset="0" style="stop-color:#E13859"/>
				<stop  offset="0.5087" style="stop-color:#C32B7F"/>
				<stop  offset="1" style="stop-color:#92318B"/>
			</linearGradient>
			<circle class="st4" cx="174.8" cy="83.1" r="9.7"/>
			<linearGradient id="SVGID_5_" gradientUnits="userSpaceOnUse" x1="160.7604" y1="109.2303" x2="188.8304" y2="109.2303">
				<stop  offset="0" style="stop-color:#E13859"/>
				<stop  offset="0.5087" style="stop-color:#C32B7F"/>
				<stop  offset="1" style="stop-color:#92318B"/>
			</linearGradient>
			<path class="st5" d="M174.8,95.2c-8.4,0-15.2,5.9-15.2,13.2c0,4.4,0,8.8,0,13.2c0,0.8,0.8,1.5,1.8,1.5c9,0,17.9,0,26.9,0
				c0.9,0,1.8-0.7,1.8-1.5c0-4.4,0-8.8,0-13.2C190,101.2,183.2,95.2,174.8,95.2z"/>
		</g>
		<g>
			<linearGradient id="SVGID_6_" gradientUnits="userSpaceOnUse" x1="165.0645" y1="148.7622" x2="184.5264" y2="148.7622">
				<stop  offset="0" style="stop-color:#E13859"/>
				<stop  offset="0.5087" style="stop-color:#C32B7F"/>
				<stop  offset="1" style="stop-color:#92318B"/>
			</linearGradient>
			<circle class="st6" cx="174.8" cy="148.8" r="9.7"/>
			<linearGradient id="SVGID_7_" gradientUnits="userSpaceOnUse" x1="160.7604" y1="174.9141" x2="188.8304" y2="174.9141">
				<stop  offset="0" style="stop-color:#E13859"/>
				<stop  offset="0.5087" style="stop-color:#C32B7F"/>
				<stop  offset="1" style="stop-color:#92318B"/>
			</linearGradient>
			<path class="st7" d="M174.8,160.9c-8.4,0-15.2,5.9-15.2,13.2c0,4.4,0,8.8,0,13.2c0,0.8,0.8,1.5,1.8,1.5c9,0,17.9,0,26.9,0
				c0.9,0,1.8-0.7,1.8-1.5c0-4.4,0-8.8,0-13.2C190,166.8,183.2,160.9,174.8,160.9z"/>
		</g>
		<linearGradient id="SVGID_8_" gradientUnits="userSpaceOnUse" x1="10" y1="101.4129" x2="76.5738" y2="101.4129">
			<stop  offset="0" style="stop-color:#E13859"/>
			<stop  offset="0.5087" style="stop-color:#C32B7F"/>
			<stop  offset="1" style="stop-color:#92318B"/>
		</linearGradient>
		<circle class="st8" cx="43.3" cy="101.4" r="33.3"/>
		<g>
			<g>
				<linearGradient id="SVGID_9_" gradientUnits="userSpaceOnUse" x1="30.1637" y1="100.8051" x2="55.913" y2="100.8051">
					<stop  offset="0" style="stop-color:#EFEFEF"/>
					<stop  offset="1" style="stop-color:#A3A3AD"/>
				</linearGradient>
				<path class="st9" d="M52.8,98.4c-1.8-1.5-4.3-2.4-7.3-2.6v-5.1c0.5,0.1,1.2,0.2,2,0.4c1.2,0.3,2.1,0.4,2.8,0.4
					c0.9,0,1.7-0.3,2.4-1c0.7-0.6,1-1.4,1-2.4c0-1.2-1.2-2.2-3.7-3c-1.6-0.5-3.1-0.9-4.5-1v-2.2c0-1.9-0.9-2.9-2.7-2.9
					c-1.8,0-2.8,1-2.8,2.9v2.9c-2.4,0.8-4.5,2.1-6.2,3.7c-2,2-3.1,4.2-3.1,6.5c0,2.2,1.2,3.9,3.6,5.1c1.6,0.8,3.5,1.3,5.7,1.5v7.9
					c-0.3,0-0.6,0-0.8,0c-0.2,0-0.8-0.1-2.4-0.6c-1.4-0.4-2.4-0.6-3-0.6c-2.4,0-3.7,1.2-3.7,3.4c0,1.2,0.8,2.2,2.4,3
					c1.8,0.8,4.3,1.2,7.5,1.1v3.9c0,0.6,0.2,1.2,0.6,1.7c0.5,0.6,1.2,1,2,1c1.9,0,2.9-1,2.9-2.7v-4.6c2.9-0.6,5.2-1.6,6.9-3
					c2.3-1.8,3.5-4,3.5-6.8C55.9,102.5,54.9,100.1,52.8,98.4z M48.8,105.3c0,1.1-1.1,2.2-3.3,3V102
					C48.5,102.5,48.8,104.1,48.8,105.3z M40.1,91.8v3.7c-1.1-0.2-2.2-0.6-2.2-1.4C37.9,93.2,38.6,92.4,40.1,91.8z"/>
			</g>
		</g>
	</g>
</g>
</svg>
