<?xml version="1.0" encoding="utf-8"?>
<!-- Generator: Adobe Illustrator 21.0.0, SVG Export Plug-In . SVG Version: 6.00 Build 0)  -->
<svg version="1.1" id="icon_x5F_Auton" xmlns="http://www.w3.org/2000/svg" xmlns:xlink="http://www.w3.org/1999/xlink" x="0px"
	 y="0px" viewBox="0 0 200 200" style="enable-background:new 0 0 200 200;" xml:space="preserve">
<style type="text/css">
	.st0{fill:none;}
	.st1{fill:url(#SVGID_1_);}
	.st2{fill:url(#SVGID_2_);}
	.st3{fill:url(#SVGID_3_);}
	.st4{fill:url(#SVGID_4_);}
	.st5{fill:url(#SVGID_5_);}
	.st6{fill:url(#SVGID_6_);}
	.st7{fill:url(#SVGID_7_);}
	.st8{fill:url(#SVGID_8_);}
</style>
<rect x="0" y="0.7" class="st0" width="200" height="200"/>
<g>
	<g>
		<g>
			<g>
				<linearGradient id="SVGID_1_" gradientUnits="userSpaceOnUse" x1="15.7582" y1="150.4898" x2="156.6722" y2="150.4898">
					<stop  offset="0" style="stop-color:#EFEFEF"/>
					<stop  offset="1" style="stop-color:#A3A3AD"/>
				</linearGradient>
				<path class="st1" d="M156.6,143.4c0,5.3-0.1,10.7,0.1,16c0.1,2.7-0.9,4-3.3,4.7c-15.5,4.7-30.8,9.9-46.5,13.9
					c-10.4,2.7-21,1.9-31.1-2.8c-17.5-8.2-35.2-16-52.8-24c-1.5-0.7-3.1-1.4-4.5-2.4c-2.2-1.5-3.1-3.7-2.5-6.3
					c0.6-2.6,2.4-4.1,5.1-4.4c3.4-0.3,6.7,0.1,10,1.1c7.2,2.2,14.4,4.2,21.6,6.1c4.7,1.2,9.2,2.1,12,6.9c1.5,2.5,4.5,3.5,7.6,3.5
					c10.6-0.1,21.3,0,31.9-0.1c1,0,2,0,2.9-0.3c0.9-0.3,1.5-1.1,1.6-2.2c0.1-1.4-0.6-2.5-1.8-2.8c-1.6-0.4-3.3-0.4-5-0.4
					c-9.2,0-18.4,0-27.6,0c-3,0-5.9,0.1-6.9-3.6c-1-3.6,0.5-7.4,3.8-9.3c2.2-1.3,4.5-1.6,7-1.6c6.3,0.1,12.6,0,18.9,0.1
					c2.2,0,4.3-0.1,6-1.7c10.9-10.1,24.5-11.9,38.4-12.2c3.9-0.1,7.7,0.6,11.6,0.8c2.4,0.1,3.4,1.2,3.4,3.6
					C156.5,131.7,156.5,137.5,156.6,143.4C156.5,143.4,156.6,143.4,156.6,143.4z"/>
				<linearGradient id="SVGID_2_" gradientUnits="userSpaceOnUse" x1="162.2389" y1="142.8137" x2="190.2261" y2="142.8137">
					<stop  offset="0" style="stop-color:#E13859"/>
					<stop  offset="0.5087" style="stop-color:#C32B7F"/>
					<stop  offset="1" style="stop-color:#92318B"/>
				</linearGradient>
				<path class="st2" d="M190.2,143.1c0,6.5,0.1,13,0,19.5c-0.1,4.3-1,5.2-5.1,5.4c-6,0.2-12,0-18.1,0c-3.3,0-4.8-1.6-4.8-4.9
					c0-13.5,0-27,0-40.5c0-3.3,1.4-5,4.7-5c6.3,0,12.5,0,18.8,0c3.4,0,4.5,2.1,4.5,5.3C190.1,129.6,190.2,136.3,190.2,143.1
					C190.2,143.1,190.2,143.1,190.2,143.1z"/>
			</g>
		</g>
		<g>
			<linearGradient id="SVGID_3_" gradientUnits="userSpaceOnUse" x1="10.2261" y1="42.1465" x2="52.6651" y2="42.1465">
				<stop  offset="0" style="stop-color:#E13859"/>
				<stop  offset="0.5087" style="stop-color:#C32B7F"/>
				<stop  offset="1" style="stop-color:#92318B"/>
			</linearGradient>
			<circle class="st3" cx="31.4" cy="42.1" r="21.2"/>
			<g>
				<g>
					<linearGradient id="SVGID_4_" gradientUnits="userSpaceOnUse" x1="23.0799" y1="41.759" x2="39.4944" y2="41.759">
						<stop  offset="0" style="stop-color:#EFEFEF"/>
						<stop  offset="1" style="stop-color:#A3A3AD"/>
					</linearGradient>
					<path class="st4" d="M37.5,40.2c-1.1-1-2.7-1.5-4.7-1.7v-3.2c0.3,0,0.8,0.1,1.3,0.2c0.8,0.2,1.4,0.3,1.8,0.3
						c0.6,0,1.1-0.2,1.5-0.6c0.4-0.4,0.6-0.9,0.6-1.5c0-0.8-0.8-1.4-2.4-1.9c-1-0.3-2-0.5-2.9-0.6v-1.4c0-1.2-0.6-1.9-1.7-1.9
						c-1.1,0-1.8,0.7-1.8,1.9v1.9c-1.5,0.5-2.9,1.3-3.9,2.4c-1.3,1.3-2,2.7-2,4.2c0,1.4,0.8,2.5,2.3,3.2c1,0.5,2.2,0.8,3.6,1v5
						c-0.2,0-0.4,0-0.5,0c-0.1,0-0.5,0-1.5-0.4c-0.9-0.3-1.5-0.4-1.9-0.4c-1.5,0-2.4,0.8-2.4,2.2c0,0.8,0.5,1.4,1.5,1.9
						c1.1,0.5,2.8,0.8,4.8,0.7v2.5c0,0.4,0.1,0.8,0.4,1.1c0.3,0.4,0.8,0.6,1.3,0.6c1.2,0,1.8-0.6,1.8-1.7V51
						c1.8-0.4,3.3-1.1,4.4-1.9c1.5-1.1,2.2-2.6,2.2-4.3C39.5,42.8,38.8,41.3,37.5,40.2z M35,44.6c0,0.7-0.7,1.4-2.1,1.9v-4
						C34.8,42.8,35,43.8,35,44.6z M29.4,36v2.3c-0.7-0.1-1.4-0.4-1.4-0.9C28,36.9,28.5,36.4,29.4,36z"/>
				</g>
			</g>
		</g>
		<g>
			<linearGradient id="SVGID_5_" gradientUnits="userSpaceOnUse" x1="49.7383" y1="84.5855" x2="121.4456" y2="84.5855">
				<stop  offset="0" style="stop-color:#E13859"/>
				<stop  offset="0.5087" style="stop-color:#C32B7F"/>
				<stop  offset="1" style="stop-color:#92318B"/>
			</linearGradient>
			<circle class="st5" cx="85.6" cy="84.6" r="35.9"/>
			<g>
				<g>
					<linearGradient id="SVGID_6_" gradientUnits="userSpaceOnUse" x1="71.4568" y1="83.9308" x2="99.1916" y2="83.9308">
						<stop  offset="0" style="stop-color:#EFEFEF"/>
						<stop  offset="1" style="stop-color:#A3A3AD"/>
					</linearGradient>
					<path class="st6" d="M95.8,81.3c-1.9-1.6-4.6-2.6-7.9-2.8V73c0.6,0.1,1.3,0.2,2.2,0.4c1.3,0.3,2.3,0.4,3,0.4c1,0,1.8-0.3,2.5-1
						c0.7-0.7,1.1-1.5,1.1-2.5c0-1.3-1.3-2.4-4-3.3c-1.7-0.6-3.3-0.9-4.9-1.1v-2.3c0-2-1-3.1-2.9-3.1c-1.9,0-3,1.1-3,3.1v3.2
						c-2.6,0.9-4.9,2.2-6.7,4c-2.2,2.1-3.3,4.5-3.3,7c0,2.3,1.3,4.2,3.8,5.5c1.7,0.9,3.8,1.4,6.2,1.6v8.5c-0.3,0-0.6,0-0.8,0
						c-0.2,0-0.8-0.1-2.6-0.6c-1.5-0.4-2.5-0.7-3.2-0.7c-2.6,0-4,1.3-4,3.7c0,1.3,0.9,2.4,2.5,3.2c1.9,0.9,4.7,1.3,8.1,1.2v4.2
						c0,0.7,0.2,1.3,0.6,1.9c0.5,0.7,1.3,1.1,2.2,1.1c2,0,3.1-1,3.1-2.9v-5c3.1-0.7,5.6-1.8,7.5-3.2c2.5-1.9,3.7-4.4,3.7-7.3
						C99.2,85.8,98.1,83.2,95.8,81.3z M91.6,88.7c0,1.2-1.2,2.3-3.6,3.3v-6.8C91.2,85.7,91.6,87.5,91.6,88.7z M82.1,74.2v3.9
						c-1.2-0.2-2.4-0.6-2.4-1.5C79.7,75.7,80.5,74.9,82.1,74.2z"/>
				</g>
			</g>
		</g>
		<g>
			<linearGradient id="SVGID_7_" gradientUnits="userSpaceOnUse" x1="121.4456" y1="40.683" x2="160.9578" y2="40.683">
				<stop  offset="0" style="stop-color:#E13859"/>
				<stop  offset="0.5087" style="stop-color:#C32B7F"/>
				<stop  offset="1" style="stop-color:#92318B"/>
			</linearGradient>
			<circle class="st7" cx="141.2" cy="40.7" r="19.8"/>
			<g>
				<g>
					<linearGradient id="SVGID_8_" gradientUnits="userSpaceOnUse" x1="133.4129" y1="40.3223" x2="148.6954" y2="40.3223">
						<stop  offset="0" style="stop-color:#EFEFEF"/>
						<stop  offset="1" style="stop-color:#A3A3AD"/>
					</linearGradient>
					<path class="st8" d="M146.9,38.9c-1.1-0.9-2.5-1.4-4.3-1.6v-3c0.3,0,0.7,0.1,1.2,0.2c0.7,0.2,1.3,0.2,1.7,0.2
						c0.5,0,1-0.2,1.4-0.6c0.4-0.4,0.6-0.9,0.6-1.4c0-0.7-0.7-1.3-2.2-1.8c-0.9-0.3-1.8-0.5-2.7-0.6v-1.3c0-1.1-0.6-1.7-1.6-1.7
						c-1.1,0-1.6,0.6-1.6,1.7v1.7c-1.4,0.5-2.7,1.2-3.7,2.2c-1.2,1.2-1.8,2.5-1.8,3.9c0,1.3,0.7,2.3,2.1,3c0.9,0.5,2.1,0.8,3.4,0.9
						v4.7c-0.2,0-0.3,0-0.5,0c-0.1,0-0.4,0-1.4-0.3c-0.8-0.2-1.4-0.4-1.8-0.4c-1.4,0-2.2,0.7-2.2,2c0,0.7,0.5,1.3,1.4,1.8
						c1,0.5,2.6,0.7,4.5,0.7v2.3c0,0.4,0.1,0.7,0.3,1c0.3,0.4,0.7,0.6,1.2,0.6c1.1,0,1.7-0.6,1.7-1.6v-2.7c1.7-0.4,3.1-1,4.1-1.8
						c1.4-1.1,2.1-2.4,2.1-4C148.7,41.3,148.1,39.9,146.9,38.9z M144.5,43c0,0.7-0.7,1.3-2,1.8V41C144.3,41.3,144.5,42.3,144.5,43z
						 M139.3,35v2.2c-0.7-0.1-1.3-0.4-1.3-0.8C138,35.8,138.4,35.4,139.3,35z"/>
				</g>
			</g>
		</g>
	</g>
</g>
</svg>
