<?xml version="1.0" encoding="utf-8"?>
<!-- Generator: Adobe Illustrator 21.0.0, SVG Export Plug-In . SVG Version: 6.00 Build 0)  -->
<svg version="1.1" id="icon_x5F_Auton" xmlns="http://www.w3.org/2000/svg" xmlns:xlink="http://www.w3.org/1999/xlink" x="0px"
	 y="0px" viewBox="0 0 200 200" style="enable-background:new 0 0 200 200;" xml:space="preserve">
<style type="text/css">
	.st0{fill:url(#SVGID_1_);}
</style>
<linearGradient id="SVGID_1_" gradientUnits="userSpaceOnUse" x1="26.1179" y1="100" x2="173.8821" y2="100">
	<stop  offset="0" style="stop-color:#E13859"/>
	<stop  offset="0.5087" style="stop-color:#C32B7F"/>
	<stop  offset="1" style="stop-color:#92318B"/>
</linearGradient>
<path class="st0" d="M173.8,84.5c0.4-5.7-1.5-11.7-6.7-16.9c-16.5-16.5-33-33-49.5-49.5c-0.2-0.3-0.5-0.5-0.7-0.7
	c-0.2-0.2-0.3-0.3-0.5-0.5c-0.7-0.7-1.4-1.2-2.1-1.7c-0.6-0.5-1.2-1.1-1.8-1.5c-0.9-0.6-1.8-1-2.7-1.4c-0.5-0.2-0.9-0.6-1.4-0.7
	c-1-0.4-1.9-0.6-2.9-0.8c-0.4-0.1-0.9-0.3-1.3-0.3c-1-0.2-1.9-0.2-2.9-0.2c-0.4,0-0.8-0.1-1.3-0.1c0,0,0,0-0.1,0s0,0-0.1,0
	c-0.4,0-0.8,0.1-1.3,0.1c-1,0-1.9,0-2.9,0.2c-0.4,0.1-0.9,0.3-1.3,0.3c-1,0.2-1.9,0.4-2.9,0.8c-0.5,0.2-0.9,0.5-1.4,0.7
	c-0.9,0.4-1.8,0.8-2.7,1.4c-0.6,0.4-1.1,0.9-1.6,1.4c-0.8,0.6-1.5,1.1-2.3,1.9c-0.2,0.2-0.3,0.3-0.5,0.5c-0.3,0.2-0.5,0.5-0.7,0.7
	c-16.5,16.5-33,33-49.5,49.5c-5.3,5.3-7.2,11.2-6.7,16.9c0.2,2.2,0.8,4.3,1.6,6.4c4.4,11.2,17.4,19.4,29.5,14.8
	c2.9-1.1,5.7-2.9,8.3-5.5c3.8-3.8,7.6-7.6,11.4-11.4c0,18.4,0,36.7,0,55.1c0,0.1,0,0.2,0,0.4c0,7.6,0,15.2,0,22.7
	c0,7.3,2.8,12.7,6.9,16.5c3.7,4,9.1,6.6,16.2,6.6l0,0c0,0,0,0,0,0s0,0,0,0l0,0c7.1,0,12.4-2.6,16.2-6.6c4.2-3.7,6.9-9.2,6.9-16.5
	c0-7.6,0-15.3,0-22.9c0-0.1,0-0.1,0-0.2c0-18.4,0-36.7,0-55.1c3.8,3.8,7.6,7.6,11.4,11.4c2.6,2.6,5.4,4.4,8.3,5.5
	c12.1,4.6,25.1-3.6,29.5-14.8C173.1,88.8,173.7,86.6,173.8,84.5z"/>
</svg>
