<?xml version="1.0" encoding="utf-8"?>
<!-- Generator: Adobe Illustrator 21.0.0, SVG Export Plug-In . SVG Version: 6.00 Build 0)  -->
<svg version="1.1" id="icon_x5F_Auton" xmlns="http://www.w3.org/2000/svg" xmlns:xlink="http://www.w3.org/1999/xlink" x="0px"
	 y="0px" viewBox="0 0 200 200" style="enable-background:new 0 0 200 200;" xml:space="preserve">
<style type="text/css">
	.st0{fill:none;}
	.st1{fill:url(#SVGID_1_);}
	.st2{fill:url(#SVGID_2_);}
	.st3{fill:url(#SVGID_3_);}
	.st4{fill:url(#SVGID_4_);}
	.st5{fill:url(#SVGID_5_);}
	.st6{fill:url(#SVGID_6_);}
	.st7{fill:url(#SVGID_7_);}
	.st8{fill:url(#SVGID_8_);}
	.st9{fill:url(#SVGID_9_);}
	.st10{fill:url(#SVGID_10_);}
	.st11{fill:url(#SVGID_11_);}
	.st12{fill:url(#SVGID_12_);}
</style>
<rect class="st0" width="200" height="200"/>
<g>
	<linearGradient id="SVGID_1_" gradientUnits="userSpaceOnUse" x1="16.6328" y1="157.358" x2="115.869" y2="157.358">
		<stop  offset="0" style="stop-color:#EFEFEF"/>
		<stop  offset="1" style="stop-color:#A3A3AD"/>
	</linearGradient>
	<path class="st1" d="M115.2,173.7c-0.9,0-1.9,0-2.8,0c0-14.1,0-28.1,0-42.2c0-3.7-3.2-6.8-7.1-6.8c-2.8,0-5.7,0-8.5,0
		c-3.8,0-7.1,3.1-7.1,6.8c0,14.1,0,28.1,0,42.2c-15.6,0-31.2,0-46.8,0c0-13.6,0-27.2,0-40.8c0-3.7-3.2-6.8-7.1-6.8
		c-2.8,0-5.7,0-8.5,0c-3.8,0-7.1,3.1-7.1,6.8c0,13.6,0,27.2,0,40.8c-0.9,0-1.9,0-2.8,0c-3.8,0-7.1,3.1-7.1,6.8c0,0.9,0,1.8,0,2.7
		c0,3.7,3.2,6.8,7.1,6.8c32.6,0,65.2,0,97.8,0c2.2,0,3.8-0.8,5-2c1.3-1.1,2.1-2.7,2.1-4.9c0-0.9,0-1.8,0-2.7
		C122.2,176.8,119,173.7,115.2,173.7z"/>
	<linearGradient id="SVGID_2_" gradientUnits="userSpaceOnUse" x1="52.1676" y1="148.1693" x2="80.3343" y2="148.1693">
		<stop  offset="0" style="stop-color:#E13859"/>
		<stop  offset="0.5087" style="stop-color:#C32B7F"/>
		<stop  offset="1" style="stop-color:#92318B"/>
	</linearGradient>
	<path class="st2" d="M76.9,145.5c-2-1.6-4.7-2.6-8-2.9v-5.6c0.6,0.1,1.3,0.2,2.2,0.4c1.3,0.3,2.3,0.4,3.1,0.4c1,0,1.9-0.4,2.6-1.1
		c0.7-0.7,1.1-1.6,1.1-2.6c0-1.3-1.3-2.4-4.1-3.3c-1.7-0.6-3.4-0.9-4.9-1.1v-2.4c0-2.1-1-3.2-2.9-3.2c-2,0-3,1.1-3,3.2v3.2
		c-2.7,0.9-4.9,2.3-6.8,4c-2.2,2.2-3.4,4.6-3.4,7.2c0,2.4,1.3,4.2,3.9,5.6c1.7,0.9,3.8,1.5,6.3,1.7v8.6c-0.3,0-0.6,0-0.9,0
		c-0.2,0-0.8-0.1-2.6-0.6c-1.5-0.5-2.6-0.7-3.2-0.7c-2.6,0-4.1,1.3-4.1,3.8c0,1.4,0.9,2.5,2.6,3.3c1.9,0.9,4.7,1.4,8.3,1.2v4.3
		c0,0.7,0.2,1.3,0.6,1.9c0.5,0.7,1.3,1.1,2.2,1.1c2,0,3.1-1.1,3.1-3v-5c3.1-0.7,5.7-1.8,7.6-3.3c2.5-1.9,3.8-4.4,3.8-7.4
		C80.3,150,79.2,147.4,76.9,145.5z M72.6,153c0,1.2-1.2,2.4-3.6,3.3v-6.9C72.2,150,72.6,151.7,72.6,153z M63,138.3v4
		c-1.2-0.2-2.4-0.7-2.4-1.5C60.6,139.9,61.4,139,63,138.3z"/>
	<linearGradient id="SVGID_3_" gradientUnits="userSpaceOnUse" x1="138.3385" y1="135.4514" x2="175.3294" y2="135.4514">
		<stop  offset="0" style="stop-color:#E13859"/>
		<stop  offset="0.5087" style="stop-color:#C32B7F"/>
		<stop  offset="1" style="stop-color:#92318B"/>
	</linearGradient>
	<path class="st3" d="M187.9,125.5c-5.1-5.1-10.2-10.2-15.2-15.2c0,0-0.1-0.1-0.1-0.1c-0.1-0.1-0.2-0.2-0.2-0.2
		c-1.6-1.6-3.3-2.1-5-2.1c-1.7-0.1-3.5,0.5-5,2.1c-0.1,0.1-0.1,0.1-0.2,0.2c-0.1,0.1-0.2,0.1-0.2,0.2c-5.1,5.1-10.1,10.1-15.2,15.2
		c-6.5,6.5,3.6,16.5,10,10c1.2-1.2,2.3-2.3,3.5-3.5c0,5.6,0,11.3,0,16.9c-9.9,0-19.8,0-29.8,0c-9.1,0-9.1,14.2,0,14.2
		c12.3,0,24.6,0,36.9,0c2.2,0,3.8-0.8,5-2c1.3-1.1,2.1-2.8,2.1-5.1c0-8,0-16,0-24c1.2,1.2,2.3,2.3,3.5,3.5
		C184.4,142,194.4,131.9,187.9,125.5z"/>
	<linearGradient id="SVGID_4_" gradientUnits="userSpaceOnUse" x1="18.9768" y1="52.9939" x2="85.3759" y2="52.9939">
		<stop  offset="0" style="stop-color:#E13859"/>
		<stop  offset="0.5087" style="stop-color:#C32B7F"/>
		<stop  offset="1" style="stop-color:#92318B"/>
	</linearGradient>
	<path class="st4" d="M21.1,63c5.1,5.1,10.2,10.2,15.2,15.2c0,0,0.1,0.1,0.1,0.1c0.1,0.1,0.2,0.2,0.2,0.2c1.6,1.6,3.3,2.1,5,2.1
		c1.7,0.1,3.5-0.5,5-2.1c0.1-0.1,0.1-0.1,0.2-0.2c0.1-0.1,0.2-0.1,0.2-0.2C52.1,73.1,57.2,68,62.3,63c6.5-6.5-3.6-16.5-10-10
		c-1.2,1.2-2.3,2.3-3.5,3.5c0-5.6,0-11.3,0-16.9c9.9,0,19.8,0,29.8,0c9.1,0,9.1-14.2,0-14.2c-12.3,0-24.6,0-36.9,0
		c-2.2,0-3.8,0.8-5,2c-1.3,1.1-2.1,2.8-2.1,5.1c0,8,0,16,0,24c-1.2-1.2-2.3-2.3-3.5-3.5C24.6,46.5,14.6,56.5,21.1,63z"/>
	<linearGradient id="SVGID_5_" gradientUnits="userSpaceOnUse" x1="15.1628" y1="101.2347" x2="117.339" y2="101.2347">
		<stop  offset="0" style="stop-color:#EFEFEF"/>
		<stop  offset="1" style="stop-color:#A3A3AD"/>
	</linearGradient>
	<path class="st5" d="M118.4,109.3c-16.3-8.4-32.6-16.7-48.9-25.1c-0.1,0-0.2-0.1-0.3-0.1c-0.9-0.5-1.9-0.7-3-0.7
		c-0.2,0-0.4,0-0.6,0c0,0,0,0,0,0c-0.4,0-0.9,0.1-1.3,0.3c0,0,0,0,0,0c-0.4,0.1-0.7,0.3-1,0.4c-0.1,0-0.2,0.1-0.3,0.1
		c-16.3,8.4-32.6,16.7-48.9,25.1c-5.3,2.7-3.3,9.7,3.2,9.7c32.6,0,65.2,0,97.7,0C121.6,119,123.7,112,118.4,109.3z"/>
	<g>
		<linearGradient id="SVGID_6_" gradientUnits="userSpaceOnUse" x1="104.7172" y1="45.5441" x2="170.0104" y2="45.5441">
			<stop  offset="0" style="stop-color:#EFEFEF"/>
			<stop  offset="1" style="stop-color:#A3A3AD"/>
		</linearGradient>
		<path class="st6" d="M168.9,12.9c-21,0-42,0-63.1,0c-3,0-5.6,2.6-5.6,5.6c0,13.9,0,27.8,0,41.7c0,1.7,0.6,3,1.6,3.9
			c0.9,1,2.2,1.7,4,1.7c6.7,0,13.4,0,20.1,0v5.7c-2.2,0-4.4,0-6.6,0c-1.5,0-2.8,1.3-2.8,2.8c0,0.4,0,0.8,0,1.1
			c0,1.5,1.3,2.8,2.8,2.8c12,0,24,0,36,0c0.8,0,1.5-0.3,1.9-0.8c0,0,0.1-0.1,0.1-0.1c0,0,0,0,0.1-0.1c0.5-0.5,0.8-1.1,0.8-1.9
			c0-0.4,0-0.8,0-1.1c0-1.5-1.3-2.8-2.8-2.8c-2.2,0-4.5,0-6.7,0v-5.7c6.7,0,13.4,0,20.1,0c3,0,5.6-2.6,5.6-5.6c0-13.9,0-27.8,0-41.7
			C174.5,15.4,172,12.9,168.9,12.9z"/>
		<linearGradient id="SVGID_7_" gradientUnits="userSpaceOnUse" x1="114.1704" y1="39.0168" x2="160.5572" y2="39.0168">
			<stop  offset="0" style="stop-color:#E13859"/>
			<stop  offset="0.5087" style="stop-color:#C32B7F"/>
			<stop  offset="1" style="stop-color:#92318B"/>
		</linearGradient>
		<rect x="111" y="23.7" class="st7" width="52.8" height="30.7"/>
		<linearGradient id="SVGID_8_" gradientUnits="userSpaceOnUse" x1="159.5751" y1="58.1435" x2="187.0051" y2="58.1435">
			<stop  offset="0" style="stop-color:#EFEFEF"/>
			<stop  offset="1" style="stop-color:#A3A3AD"/>
		</linearGradient>
		<path class="st8" d="M186.6,27.8c-8.9,0-17.8,0-26.7,0c-2,0-3.6,2.1-3.6,4.6c0,17.2,0,34.3,0,51.5c0,2.5,1.7,4.6,3.6,4.6
			c8.9,0,17.8,0,26.7,0c1.1,0,1.9-0.5,2.5-1.3c0.7-0.7,1.1-1.8,1.1-3.3c0-17.2,0-34.3,0-51.5C190.3,29.9,188.6,27.8,186.6,27.8z"/>
		<linearGradient id="SVGID_9_" gradientUnits="userSpaceOnUse" x1="164.3266" y1="38.0415" x2="182.2536" y2="38.0415">
			<stop  offset="0" style="stop-color:#E13859"/>
			<stop  offset="0.5087" style="stop-color:#C32B7F"/>
			<stop  offset="1" style="stop-color:#92318B"/>
		</linearGradient>
		<path class="st9" d="M183.5,37.7c0-0.9-0.6-1.8-1.4-1.8c-5.9,0-11.8,0-17.7,0c-0.7,0-1.4,0.8-1.4,1.8c0,0.2,0,0.5,0,0.7
			c0,0.9,0.6,1.8,1.4,1.8c5.9,0,11.8,0,17.7,0c0.4,0,0.7-0.2,0.9-0.5c0,0,0,0,0-0.1c0,0,0,0,0,0c0.2-0.3,0.4-0.7,0.4-1.2
			C183.5,38.2,183.5,37.9,183.5,37.7z"/>
		<linearGradient id="SVGID_10_" gradientUnits="userSpaceOnUse" x1="164.3266" y1="45.9009" x2="182.2536" y2="45.9009">
			<stop  offset="0" style="stop-color:#E13859"/>
			<stop  offset="0.5087" style="stop-color:#C32B7F"/>
			<stop  offset="1" style="stop-color:#92318B"/>
		</linearGradient>
		<path class="st10" d="M183.5,45.5c0-0.9-0.6-1.8-1.4-1.8c-5.9,0-11.8,0-17.7,0c-0.7,0-1.4,0.8-1.4,1.8c0,0.2,0,0.5,0,0.7
			c0,0.9,0.6,1.8,1.4,1.8c5.9,0,11.8,0,17.7,0c0.4,0,0.7-0.2,0.9-0.5c0,0,0,0,0-0.1c0,0,0,0,0,0c0.2-0.3,0.4-0.7,0.4-1.2
			C183.5,46,183.5,45.8,183.5,45.5z"/>
		<linearGradient id="SVGID_11_" gradientUnits="userSpaceOnUse" x1="164.3266" y1="53.7602" x2="182.2536" y2="53.7602">
			<stop  offset="0" style="stop-color:#E13859"/>
			<stop  offset="0.5087" style="stop-color:#C32B7F"/>
			<stop  offset="1" style="stop-color:#92318B"/>
		</linearGradient>
		<path class="st11" d="M183.5,53.4c0-0.9-0.6-1.8-1.4-1.8c-5.9,0-11.8,0-17.7,0c-0.7,0-1.4,0.8-1.4,1.8c0,0.2,0,0.5,0,0.7
			c0,0.9,0.6,1.8,1.4,1.8c5.9,0,11.8,0,17.7,0c0.4,0,0.7-0.2,0.9-0.5c0,0,0,0,0-0.1c0,0,0,0,0,0c0.2-0.3,0.4-0.7,0.4-1.2
			C183.5,53.9,183.5,53.6,183.5,53.4z"/>
		<linearGradient id="SVGID_12_" gradientUnits="userSpaceOnUse" x1="169.3426" y1="67.6277" x2="178.1571" y2="67.6277">
			<stop  offset="0" style="stop-color:#E13859"/>
			<stop  offset="0.5087" style="stop-color:#C32B7F"/>
			<stop  offset="1" style="stop-color:#92318B"/>
		</linearGradient>
		<circle class="st12" cx="173.7" cy="67.6" r="4.6"/>
	</g>
</g>
</svg>
