<?xml version="1.0" encoding="UTF-8"?>
<svg enable-background="new 0 0 300 80" version="1.1" viewBox="0 0 300 80" xml:space="preserve" xmlns="http://www.w3.org/2000/svg">
<style type="text/css">
	.st0{fill:none;}
	.st1{fill:url(#d);}
	.st2{fill:url(#c);}
	.st3{fill:url(#b);}
	.st4{fill:url(#a);}
	.st5{fill:#A3A3AD;}
	.st6{fill:#FFFFFF;}
</style>
		<polygon class="st0" points="6.6 49.1 1.9 53.7"/>
		<polygon class="st0" points="29.8 28.5 25.1 33.1 20.5 37.7 15.8 42.4 20.5 47 25.1 51.7 29.8 56.3 34.4 61 39.1 65.6 43.7 61 48.4 56.3 53 51.7 57.6 47 62.3 42.4 57.6 37.7 53 33.1 48.4 28.5 43.7 23.8 39.1 19.2 34.4 23.8"/>
		<polygon class="st0" points="15.8 49.1 15.8 49.1"/>
		<polygon class="st0" points="62.3 42.4 62.3 42.4"/>
		<linearGradient id="d" x2="64.201" y1="58.656" y2="58.656" gradientUnits="userSpaceOnUse">
			<stop stop-color="#707171" offset="0"/>
			<stop stop-color="#C8C9C9" offset="1"/>
		</linearGradient>
		<path class="st1" d="m62.3 42.4-4.7 4.6-4.6 4.7-18.5 18.5-4.6-4.6-4.8-4.6-9.2-9.2-4.7-4.8-9.2-9.2c-2.6 2.6-2.6 6.7 0 9.3l32.2 32.2 13.8-13.8 5-4.5 9.2-9.2c2.6-2.7 2.6-6.8 0.1-9.4z"/>
		<linearGradient id="c" x1="18.72" x2="82.877" y1="21.334" y2="21.334" gradientUnits="userSpaceOnUse">
			<stop stop-color="#707171" offset="0"/>
			<stop stop-color="#C8C9C9" offset="1"/>
		</linearGradient>
		<path class="st2" d="m39.2 9.7-18.5 18.5c-2.5 2.5-2.5 6.7 0 9.2l27.6-27.6 32.2 32.2c2.5-2.5 2.5-6.7 0-9.2l-9.2-9.2-4.2-4.6-18.4-18.4-4.6 4.6-4.9 4.5z"/>
		<linearGradient id="b" x1="1.9095" x2="43.713" y1="32.967" y2="32.967" gradientUnits="userSpaceOnUse">
			<stop stop-color="#D65C1D" offset="0"/>
			<stop stop-color="#C32B7F" offset="1"/>
		</linearGradient>
		<path class="st3" d="m20.5 23.7 23-23h-9.3l-13.8 13.8-4.6 4.5-9.2 9.2-4.7 4.8 32.2 32.2 4.6-4.6-23-23c-2.5-2.5-2.5-6.7 0-9.2l4.8-4.7z"/>
		<linearGradient id="a" x1="39.2" x2="81.003" y1="47.033" y2="47.033" gradientUnits="userSpaceOnUse">
			<stop stop-color="#4E3882" offset="0"/>
			<stop stop-color="#92318B" offset="1"/>
		</linearGradient>
		<path class="st4" d="m76.4 42.4-27.6-27.6-4.6 4.6 23 23c2.5 2.5 2.5 6.7 0 9.2l-27.8 27.8h9.3l27.6-27.6 4.7-4.8-4.6-4.6z"/>
			<path class="st5" d="M109.8,69.6h-1.5V50.1h1.5V69.6z"/>
			<path class="st5" d="M134.2,69.6h-2l-12.9-17.9v17.9h-1.5V50.1h2.1l12.8,17.8V50.1h1.5V69.6z"/>
			<path class="st5" d="m155.3 51.5h-12.2v7.3h10.6v1.4h-10.6v9.4h-1.5v-19.5h13.7v1.4z"/>
			<path class="st5" d="m170.8 49.7c1.4 0 2.8 0.2 4 0.7s2.3 1.2 3.2 2c0.9 0.9 1.6 1.9 2.1 3.2 0.5 1.2 0.7 2.6 0.7 4.1s-0.2 2.9-0.7 4.1c-0.5 1.3-1.2 2.3-2.1 3.2s-1.9 1.6-3.1 2.1-2.6 0.7-4 0.7c-1.5 0-2.8-0.2-4-0.7s-2.3-1.2-3.2-2.1-1.6-2-2.1-3.2c-0.5-1.3-0.7-2.6-0.7-4.2 0-1.5 0.2-2.9 0.7-4.2 0.5-1.2 1.2-2.3 2.1-3.2s1.9-1.6 3.2-2c1.1-0.3 2.4-0.5 3.9-0.5zm0 18.9c1.2 0 2.3-0.2 3.4-0.6 1-0.4 1.9-1 2.7-1.7 0.7-0.8 1.3-1.7 1.7-2.8s0.6-2.3 0.6-3.7-0.2-2.6-0.6-3.7-1-2-1.7-2.7-1.6-1.3-2.6-1.7-2.1-0.6-3.3-0.6-2.3 0.2-3.4 0.6c-1 0.4-1.9 0.9-2.7 1.7-0.7 0.7-1.3 1.6-1.7 2.7s-0.6 2.3-0.6 3.7 0.2 2.6 0.6 3.7 1 2 1.7 2.8 1.6 1.3 2.6 1.7 2.1 0.6 3.3 0.6z"/>
			<path class="st5" d="m195 70c-1.4 0-2.7-0.1-3.7-0.4-1.1-0.3-2-0.7-2.7-1.2s-1.3-1.1-1.7-1.9c-0.4-0.7-0.6-1.6-0.7-2.5h1.5c0.2 0.9 0.4 1.6 0.9 2.2 0.4 0.6 1 1 1.6 1.4 0.6 0.3 1.3 0.6 2.1 0.7s1.6 0.2 2.6 0.2c0.9 0 1.8-0.1 2.5-0.3 0.8-0.2 1.4-0.5 1.9-0.8 0.5-0.4 0.9-0.8 1.2-1.3s0.4-1.1 0.4-1.7c0-0.7-0.1-1.2-0.4-1.7-0.2-0.4-0.7-0.8-1.2-1.2-0.6-0.3-1.3-0.6-2.3-0.9-0.9-0.3-2.1-0.5-3.5-0.8-1.2-0.2-2.2-0.5-3-0.8s-1.5-0.7-2.1-1.1c-0.5-0.4-0.9-0.9-1.2-1.4s-0.4-1.1-0.4-1.8c0-0.8 0.2-1.5 0.5-2.1s0.8-1.2 1.5-1.6 1.4-0.8 2.3-1.1 1.9-0.4 3-0.4 2.1 0.1 3 0.3 1.7 0.6 2.4 1 1.2 1 1.6 1.6 0.7 1.3 0.8 2.1h-1.5c-0.1-0.5-0.4-1-0.7-1.5s-0.7-0.8-1.2-1.2c-0.5-0.3-1.1-0.6-1.8-0.8s-1.5-0.3-2.4-0.3c-1.9 0-3.3 0.3-4.3 1-1 0.6-1.5 1.5-1.5 2.6 0 0.5 0.1 1 0.3 1.3 0.2 0.4 0.5 0.7 0.9 1s1 0.6 1.7 0.8 1.6 0.4 2.6 0.7c0.6 0.1 1.3 0.2 1.9 0.4 0.7 0.1 1.3 0.3 1.9 0.5s1.2 0.4 1.8 0.7 1.1 0.6 1.5 1 0.8 0.8 1 1.4c0.3 0.5 0.4 1.2 0.4 1.9 0 0.8-0.2 1.6-0.6 2.3s-0.9 1.3-1.6 1.8-1.5 0.9-2.4 1.2c-0.8 0.5-1.8 0.7-2.9 0.7z"/>
			<path class="st5" d="m223.8 51.5h-7.4v18.1h-1.5v-18.1h-7.3v-1.4h16.3v1.4z"/>
			<path class="st5" d="m246.5 69.6h-1.7l-2.1-5.2c-0.2-0.5-0.4-1-0.7-1.4s-0.5-0.8-0.9-1.2c-0.3-0.3-0.7-0.6-1.1-0.8s-0.9-0.3-1.5-0.3h-7.4v8.8h-1.5v-19.4h9.5c0.9 0 1.7 0.1 2.6 0.2 0.8 0.1 1.6 0.4 2.2 0.8 0.7 0.4 1.2 0.9 1.6 1.6s0.6 1.5 0.6 2.6c0 0.7-0.1 1.3-0.3 1.8-0.2 0.6-0.4 1.1-0.8 1.5s-0.8 0.8-1.4 1.1c-0.5 0.3-1.2 0.5-1.9 0.7 0.4 0.3 0.7 0.6 1 0.8 0.3 0.3 0.5 0.5 0.7 0.8s0.4 0.6 0.5 1 0.3 0.8 0.5 1.2l2.1 5.4zm-15.4-10.2h7.3c1 0 1.9-0.1 2.7-0.2 0.7-0.1 1.4-0.4 1.8-0.7 0.5-0.3 0.8-0.8 1.1-1.3 0.2-0.5 0.3-1.2 0.3-1.9 0-1.3-0.5-2.3-1.4-2.9s-2.3-0.9-4.1-0.9h-7.8v7.9z"/>
			<path class="st5" d="m261.3 70c-1.3 0-2.3-0.1-3.2-0.4-0.9-0.2-1.6-0.6-2.2-1s-1.1-0.9-1.4-1.5-0.6-1.2-0.8-1.8-0.3-1.3-0.3-2-0.1-1.3-0.1-2v-11.2h1.5v11.3c0 1.5 0.1 2.7 0.4 3.6s0.7 1.7 1.3 2.2 1.2 0.9 2 1.1 1.7 0.3 2.8 0.3 2-0.1 2.8-0.3 1.5-0.6 2-1.1 1-1.3 1.2-2.2c0.3-0.9 0.4-2.1 0.4-3.6v-11.3h1.5v11.4c0 1.3-0.1 2.5-0.4 3.6-0.2 1.1-0.7 2-1.3 2.7s-1.4 1.3-2.5 1.7-2.1 0.5-3.7 0.5z"/>
			<path class="st5" d="M296.5,69.6H295V52.4l-7.6,17.2h-1.6l-7.6-17.2v17.2h-1.5V50.1h2.2l7.7,17.8l7.8-17.8h2.2V69.6z"/>
			<path class="st6" d="m140.4 29.5h-16.7c-2 6.1-7.4 9.9-16.4 11.6l-1.1-1.9c8.3-1.5 13.4-4.7 15.3-9.8h-14.7v-2h3.7v-8.7h12.2v-3.7h2v3.7h11.8v8.7h3.8v2.1zm-17.6-16.7h-5v4h-2.1v-4h-9.2v-1.9h9.2v-4.3h2.1v4.3h5v1.9zm-0.1 8.1h-10v6.7h9.4c0.3-1.9 0.5-4.1 0.6-6.7zm11.9 6.6v-6.7h-9.7c-0.1 2.3-0.3 4.5-0.6 6.7h10.3zm6.3-14.7h-9.2v4h-2.1v-4h-5v-1.9h5v-4.3h2.1v4.3h9.2v1.9zm0.1 26.7-1.2 1.8c-4.2-3-9.2-5.6-14.8-7.9l1.1-1.9c5.1 2.1 10 4.8 14.9 8z"/>
			<path class="st6" d="m180.6 31.3h-15.6v7c0 0.9-0.3 1.6-1 2.1-0.6 0.5-1.8 0.7-3.6 0.7h-2.8l-0.9-2c3 0.1 4.8 0 5.4-0.2 0.5-0.2 0.8-0.6 0.8-1.1v-6.6h-16.8v-2h16.9v-2.5c3.5-1.4 6.4-2.8 9-4.1h-22v-2h26.3v2c-4.9 2.8-8.6 4.6-11.1 5.5v1.2h15.5v2zm-3-22.9c-6 1.7-15.2 2.5-27.6 2.4l-0.7-2.1c1.7 0.1 3.4 0.1 4.9 0.1 8.7 0 16.1-0.8 22-2.3l1.4 1.9zm-21.8 9.9-1.9 0.9c-0.8-2-2.1-4-3.6-5.9l1.9-0.9c1.6 1.8 2.8 3.8 3.6 5.9zm10 0-2 0.6c-0.6-2-1.5-4.1-2.7-6.2l1.9-0.8c1.2 2.2 2.2 4.3 2.8 6.4zm12-6.4c-1.1 2.6-2.5 5-4.3 7l-1.9-1.1c1.8-2 3.3-4.3 4.4-6.8l1.8 0.9z"/>
			<path class="st6" d="m201.8 32.8-1.1 1.8c-1.6-1.6-3.2-2.9-4.9-4v10.6h-2v-10.4c-2.2 3-4.6 5.4-7.2 7.3l-1.3-1.5c3.9-3 6.7-6.1 8.4-9.2h-7.7v-2h7.7v-4.5h2v4.5h5.9v2h-5.9v0.9c2.7 1.7 4.7 3.2 6.1 4.5zm17.3-12.4-0.9 1.7c-4.1-2.6-8.9-5-14.3-6.9v7.3h-2.1v-9.2c-3.4 3.5-8.2 6.4-14.3 8.7l-1.1-1.7c6.3-2.3 10.9-5 13.9-8.2h-13.5v-2h15v-3.5h2.1v3.7h15v2h-15v1c6 2.1 11.1 4.5 15.2 7.1zm1 16.4-1.1 1.7c-3.8-3-6.3-5.7-7.6-7.9v10.6h-2.1v-10.5c-2.3 2.9-4.7 5.5-7.4 7.7l-1.4-1.5c4.1-3.3 7.1-6.4 8.7-9.5h-5.8v-2h5.8v-4.4h2.1v4.4h7.9v2h-7.8c1.8 3.3 4.7 6.4 8.7 9.4z"/>
			<path class="st6" d="m253.7 35.6h-15.7l1 1.3c-4.1 2.1-8.4 3.6-13 4.5l-1-1.9c4.2-0.7 8.2-2 12.1-3.9h-6.1v-14.5h22.8v14.5zm-17.4-18.2h-11v-2h11v2zm-0.3-7.1h-10v-1.9h10v1.9zm15.6 14.9v-2.2h-18.6v2.3h18.6zm0 4.3v-2.5h-18.6v2.4h18.6zm0 4.2v-2.5h-18.6v2.5h18.6zm8-15.1-0.9 1.9c-5.1-0.7-9-2.3-11.8-4.6-2.3 2.2-5.3 3.7-9 4.5l-1.1-1.9c4.8-0.7 8.2-2.7 10-5.9l2.2 0.4c-0.1 0.3-0.4 0.8-0.9 1.5 2.7 2.3 6.5 3.6 11.5 4.1zm-0.8-7.2c-1.3 1.9-2.6 3.4-3.7 4.5l-1.5-1.4c1-1 2-2.1 2.9-3.4h-14.5c-1.1 1.4-2.3 2.5-3.6 3.5l-1.4-1.4c2.3-1.7 4.2-4 5.7-7l1.9 0.7-1.3 2.2h15.4v2.3zm0.6 28.2-0.9 1.8c-3.8-1.4-7.7-2.5-11.5-3.3l1-1.8c4.1 0.9 7.9 2 11.4 3.3z"/>
			<path class="st6" d="m277.5 12.6h-13.1v-1.9h6.1c-0.4-1-0.9-2.2-1.7-3.5l1.8-0.9c0.8 1.4 1.5 2.9 2 4.4h4.9v1.9zm-1.1 5.8h-11v-1.9h11v1.9zm-0.1 5.6h-10.9v-1.9h10.9v1.9zm0 16.5h-2.1v-2.4h-6.4v3h-2.1v-13.2h10.6v12.6zm-2.1-4.2v-6.4h-6.4v6.4h6.4zm25.8-4.1c-0.3 2.5-0.8 4.6-1.5 6.2s-1.5 2.5-2.4 2.5c-1.4 0-2.3-1.4-2.8-4.1-0.5-2.8-0.8-5-0.8-6.9v-20.3h-7.9v12.4h6.2v1.9h-6.2v17.4h-2.1v-17.4h-4.6v-1.9h4.6v-12.4h-4.3v-1.9h16.2v20.8c0 3.4 0.2 5.9 0.6 7.7 0.4 1.7 0.7 2.6 0.9 2.6s0.5-0.8 1-2.5 0.8-3.4 1-5.1l2.1 1z"/>
</svg>
